%TF.GenerationSoftware,KiCad,Pcbnew,9.0.5*%
%TF.CreationDate,2025-11-20T18:01:40-05:00*%
%TF.ProjectId,stencilFix,7374656e-6369-46c4-9669-782e6b696361,rev?*%
%TF.SameCoordinates,Original*%
%TF.FileFunction,Legend,Bot*%
%TF.FilePolarity,Positive*%
%FSLAX46Y46*%
G04 Gerber Fmt 4.6, Leading zero omitted, Abs format (unit mm)*
G04 Created by KiCad (PCBNEW 9.0.5) date 2025-11-20 18:01:40*
%MOMM*%
%LPD*%
G01*
G04 APERTURE LIST*
%ADD10C,0.100000*%
G04 APERTURE END LIST*
D10*
X108489599Y-85514856D02*
X108394361Y-85562475D01*
X108394361Y-85562475D02*
X108203885Y-85562475D01*
X108203885Y-85562475D02*
X108108647Y-85514856D01*
X108108647Y-85514856D02*
X108061028Y-85419617D01*
X108061028Y-85419617D02*
X108061028Y-85371998D01*
X108061028Y-85371998D02*
X108108647Y-85276760D01*
X108108647Y-85276760D02*
X108203885Y-85229141D01*
X108203885Y-85229141D02*
X108346742Y-85229141D01*
X108346742Y-85229141D02*
X108441980Y-85181522D01*
X108441980Y-85181522D02*
X108489599Y-85086284D01*
X108489599Y-85086284D02*
X108489599Y-85038665D01*
X108489599Y-85038665D02*
X108441980Y-84943427D01*
X108441980Y-84943427D02*
X108346742Y-84895808D01*
X108346742Y-84895808D02*
X108203885Y-84895808D01*
X108203885Y-84895808D02*
X108108647Y-84943427D01*
X107775313Y-84895808D02*
X107394361Y-84895808D01*
X107632456Y-84562475D02*
X107632456Y-85419617D01*
X107632456Y-85419617D02*
X107584837Y-85514856D01*
X107584837Y-85514856D02*
X107489599Y-85562475D01*
X107489599Y-85562475D02*
X107394361Y-85562475D01*
X106680075Y-85514856D02*
X106775313Y-85562475D01*
X106775313Y-85562475D02*
X106965789Y-85562475D01*
X106965789Y-85562475D02*
X107061027Y-85514856D01*
X107061027Y-85514856D02*
X107108646Y-85419617D01*
X107108646Y-85419617D02*
X107108646Y-85038665D01*
X107108646Y-85038665D02*
X107061027Y-84943427D01*
X107061027Y-84943427D02*
X106965789Y-84895808D01*
X106965789Y-84895808D02*
X106775313Y-84895808D01*
X106775313Y-84895808D02*
X106680075Y-84943427D01*
X106680075Y-84943427D02*
X106632456Y-85038665D01*
X106632456Y-85038665D02*
X106632456Y-85133903D01*
X106632456Y-85133903D02*
X107108646Y-85229141D01*
X106203884Y-84895808D02*
X106203884Y-85562475D01*
X106203884Y-84991046D02*
X106156265Y-84943427D01*
X106156265Y-84943427D02*
X106061027Y-84895808D01*
X106061027Y-84895808D02*
X105918170Y-84895808D01*
X105918170Y-84895808D02*
X105822932Y-84943427D01*
X105822932Y-84943427D02*
X105775313Y-85038665D01*
X105775313Y-85038665D02*
X105775313Y-85562475D01*
X104870551Y-85514856D02*
X104965789Y-85562475D01*
X104965789Y-85562475D02*
X105156265Y-85562475D01*
X105156265Y-85562475D02*
X105251503Y-85514856D01*
X105251503Y-85514856D02*
X105299122Y-85467236D01*
X105299122Y-85467236D02*
X105346741Y-85371998D01*
X105346741Y-85371998D02*
X105346741Y-85086284D01*
X105346741Y-85086284D02*
X105299122Y-84991046D01*
X105299122Y-84991046D02*
X105251503Y-84943427D01*
X105251503Y-84943427D02*
X105156265Y-84895808D01*
X105156265Y-84895808D02*
X104965789Y-84895808D01*
X104965789Y-84895808D02*
X104870551Y-84943427D01*
X104441979Y-85562475D02*
X104441979Y-84895808D01*
X104441979Y-84562475D02*
X104489598Y-84610094D01*
X104489598Y-84610094D02*
X104441979Y-84657713D01*
X104441979Y-84657713D02*
X104394360Y-84610094D01*
X104394360Y-84610094D02*
X104441979Y-84562475D01*
X104441979Y-84562475D02*
X104441979Y-84657713D01*
X103822932Y-85562475D02*
X103918170Y-85514856D01*
X103918170Y-85514856D02*
X103965789Y-85419617D01*
X103965789Y-85419617D02*
X103965789Y-84562475D01*
X103108646Y-85038665D02*
X103441979Y-85038665D01*
X103441979Y-85562475D02*
X103441979Y-84562475D01*
X103441979Y-84562475D02*
X102965789Y-84562475D01*
X102584836Y-85562475D02*
X102584836Y-84895808D01*
X102584836Y-84562475D02*
X102632455Y-84610094D01*
X102632455Y-84610094D02*
X102584836Y-84657713D01*
X102584836Y-84657713D02*
X102537217Y-84610094D01*
X102537217Y-84610094D02*
X102584836Y-84562475D01*
X102584836Y-84562475D02*
X102584836Y-84657713D01*
X102203884Y-85562475D02*
X101680075Y-84895808D01*
X102203884Y-84895808D02*
X101680075Y-85562475D01*
X100203884Y-85038665D02*
X100061027Y-85086284D01*
X100061027Y-85086284D02*
X100013408Y-85133903D01*
X100013408Y-85133903D02*
X99965789Y-85229141D01*
X99965789Y-85229141D02*
X99965789Y-85371998D01*
X99965789Y-85371998D02*
X100013408Y-85467236D01*
X100013408Y-85467236D02*
X100061027Y-85514856D01*
X100061027Y-85514856D02*
X100156265Y-85562475D01*
X100156265Y-85562475D02*
X100537217Y-85562475D01*
X100537217Y-85562475D02*
X100537217Y-84562475D01*
X100537217Y-84562475D02*
X100203884Y-84562475D01*
X100203884Y-84562475D02*
X100108646Y-84610094D01*
X100108646Y-84610094D02*
X100061027Y-84657713D01*
X100061027Y-84657713D02*
X100013408Y-84752951D01*
X100013408Y-84752951D02*
X100013408Y-84848189D01*
X100013408Y-84848189D02*
X100061027Y-84943427D01*
X100061027Y-84943427D02*
X100108646Y-84991046D01*
X100108646Y-84991046D02*
X100203884Y-85038665D01*
X100203884Y-85038665D02*
X100537217Y-85038665D01*
X99394360Y-85562475D02*
X99489598Y-85514856D01*
X99489598Y-85514856D02*
X99537217Y-85467236D01*
X99537217Y-85467236D02*
X99584836Y-85371998D01*
X99584836Y-85371998D02*
X99584836Y-85086284D01*
X99584836Y-85086284D02*
X99537217Y-84991046D01*
X99537217Y-84991046D02*
X99489598Y-84943427D01*
X99489598Y-84943427D02*
X99394360Y-84895808D01*
X99394360Y-84895808D02*
X99251503Y-84895808D01*
X99251503Y-84895808D02*
X99156265Y-84943427D01*
X99156265Y-84943427D02*
X99108646Y-84991046D01*
X99108646Y-84991046D02*
X99061027Y-85086284D01*
X99061027Y-85086284D02*
X99061027Y-85371998D01*
X99061027Y-85371998D02*
X99108646Y-85467236D01*
X99108646Y-85467236D02*
X99156265Y-85514856D01*
X99156265Y-85514856D02*
X99251503Y-85562475D01*
X99251503Y-85562475D02*
X99394360Y-85562475D01*
X98299122Y-85038665D02*
X98156265Y-85086284D01*
X98156265Y-85086284D02*
X98108646Y-85133903D01*
X98108646Y-85133903D02*
X98061027Y-85229141D01*
X98061027Y-85229141D02*
X98061027Y-85371998D01*
X98061027Y-85371998D02*
X98108646Y-85467236D01*
X98108646Y-85467236D02*
X98156265Y-85514856D01*
X98156265Y-85514856D02*
X98251503Y-85562475D01*
X98251503Y-85562475D02*
X98632455Y-85562475D01*
X98632455Y-85562475D02*
X98632455Y-84562475D01*
X98632455Y-84562475D02*
X98299122Y-84562475D01*
X98299122Y-84562475D02*
X98203884Y-84610094D01*
X98203884Y-84610094D02*
X98156265Y-84657713D01*
X98156265Y-84657713D02*
X98108646Y-84752951D01*
X98108646Y-84752951D02*
X98108646Y-84848189D01*
X98108646Y-84848189D02*
X98156265Y-84943427D01*
X98156265Y-84943427D02*
X98203884Y-84991046D01*
X98203884Y-84991046D02*
X98299122Y-85038665D01*
X98299122Y-85038665D02*
X98632455Y-85038665D01*
X96965788Y-84895808D02*
X96727693Y-85562475D01*
X96727693Y-85562475D02*
X96489598Y-84895808D01*
X96108645Y-85467236D02*
X96061026Y-85514856D01*
X96061026Y-85514856D02*
X96108645Y-85562475D01*
X96108645Y-85562475D02*
X96156264Y-85514856D01*
X96156264Y-85514856D02*
X96108645Y-85467236D01*
X96108645Y-85467236D02*
X96108645Y-85562475D01*
X95441979Y-84562475D02*
X95346741Y-84562475D01*
X95346741Y-84562475D02*
X95251503Y-84610094D01*
X95251503Y-84610094D02*
X95203884Y-84657713D01*
X95203884Y-84657713D02*
X95156265Y-84752951D01*
X95156265Y-84752951D02*
X95108646Y-84943427D01*
X95108646Y-84943427D02*
X95108646Y-85181522D01*
X95108646Y-85181522D02*
X95156265Y-85371998D01*
X95156265Y-85371998D02*
X95203884Y-85467236D01*
X95203884Y-85467236D02*
X95251503Y-85514856D01*
X95251503Y-85514856D02*
X95346741Y-85562475D01*
X95346741Y-85562475D02*
X95441979Y-85562475D01*
X95441979Y-85562475D02*
X95537217Y-85514856D01*
X95537217Y-85514856D02*
X95584836Y-85467236D01*
X95584836Y-85467236D02*
X95632455Y-85371998D01*
X95632455Y-85371998D02*
X95680074Y-85181522D01*
X95680074Y-85181522D02*
X95680074Y-84943427D01*
X95680074Y-84943427D02*
X95632455Y-84752951D01*
X95632455Y-84752951D02*
X95584836Y-84657713D01*
X95584836Y-84657713D02*
X95537217Y-84610094D01*
X95537217Y-84610094D02*
X95441979Y-84562475D01*
X94775312Y-84562475D02*
X94156265Y-84562475D01*
X94156265Y-84562475D02*
X94489598Y-84943427D01*
X94489598Y-84943427D02*
X94346741Y-84943427D01*
X94346741Y-84943427D02*
X94251503Y-84991046D01*
X94251503Y-84991046D02*
X94203884Y-85038665D01*
X94203884Y-85038665D02*
X94156265Y-85133903D01*
X94156265Y-85133903D02*
X94156265Y-85371998D01*
X94156265Y-85371998D02*
X94203884Y-85467236D01*
X94203884Y-85467236D02*
X94251503Y-85514856D01*
X94251503Y-85514856D02*
X94346741Y-85562475D01*
X94346741Y-85562475D02*
X94632455Y-85562475D01*
X94632455Y-85562475D02*
X94727693Y-85514856D01*
X94727693Y-85514856D02*
X94775312Y-85467236D01*
X108727695Y-86648609D02*
X108394362Y-86648609D01*
X108251505Y-87172419D02*
X108727695Y-87172419D01*
X108727695Y-87172419D02*
X108727695Y-86172419D01*
X108727695Y-86172419D02*
X108251505Y-86172419D01*
X107822933Y-87172419D02*
X107822933Y-86505752D01*
X107822933Y-86696228D02*
X107775314Y-86600990D01*
X107775314Y-86600990D02*
X107727695Y-86553371D01*
X107727695Y-86553371D02*
X107632457Y-86505752D01*
X107632457Y-86505752D02*
X107537219Y-86505752D01*
X107203885Y-87172419D02*
X107203885Y-86505752D01*
X107203885Y-86172419D02*
X107251504Y-86220038D01*
X107251504Y-86220038D02*
X107203885Y-86267657D01*
X107203885Y-86267657D02*
X107156266Y-86220038D01*
X107156266Y-86220038D02*
X107203885Y-86172419D01*
X107203885Y-86172419D02*
X107203885Y-86267657D01*
X106299124Y-87124800D02*
X106394362Y-87172419D01*
X106394362Y-87172419D02*
X106584838Y-87172419D01*
X106584838Y-87172419D02*
X106680076Y-87124800D01*
X106680076Y-87124800D02*
X106727695Y-87077180D01*
X106727695Y-87077180D02*
X106775314Y-86981942D01*
X106775314Y-86981942D02*
X106775314Y-86696228D01*
X106775314Y-86696228D02*
X106727695Y-86600990D01*
X106727695Y-86600990D02*
X106680076Y-86553371D01*
X106680076Y-86553371D02*
X106584838Y-86505752D01*
X106584838Y-86505752D02*
X106394362Y-86505752D01*
X106394362Y-86505752D02*
X106299124Y-86553371D01*
X104775314Y-86648609D02*
X104632457Y-86696228D01*
X104632457Y-86696228D02*
X104584838Y-86743847D01*
X104584838Y-86743847D02*
X104537219Y-86839085D01*
X104537219Y-86839085D02*
X104537219Y-86981942D01*
X104537219Y-86981942D02*
X104584838Y-87077180D01*
X104584838Y-87077180D02*
X104632457Y-87124800D01*
X104632457Y-87124800D02*
X104727695Y-87172419D01*
X104727695Y-87172419D02*
X105108647Y-87172419D01*
X105108647Y-87172419D02*
X105108647Y-86172419D01*
X105108647Y-86172419D02*
X104775314Y-86172419D01*
X104775314Y-86172419D02*
X104680076Y-86220038D01*
X104680076Y-86220038D02*
X104632457Y-86267657D01*
X104632457Y-86267657D02*
X104584838Y-86362895D01*
X104584838Y-86362895D02*
X104584838Y-86458133D01*
X104584838Y-86458133D02*
X104632457Y-86553371D01*
X104632457Y-86553371D02*
X104680076Y-86600990D01*
X104680076Y-86600990D02*
X104775314Y-86648609D01*
X104775314Y-86648609D02*
X105108647Y-86648609D01*
X104108647Y-87172419D02*
X104108647Y-86505752D01*
X104108647Y-86696228D02*
X104061028Y-86600990D01*
X104061028Y-86600990D02*
X104013409Y-86553371D01*
X104013409Y-86553371D02*
X103918171Y-86505752D01*
X103918171Y-86505752D02*
X103822933Y-86505752D01*
X103108647Y-87124800D02*
X103203885Y-87172419D01*
X103203885Y-87172419D02*
X103394361Y-87172419D01*
X103394361Y-87172419D02*
X103489599Y-87124800D01*
X103489599Y-87124800D02*
X103537218Y-87029561D01*
X103537218Y-87029561D02*
X103537218Y-86648609D01*
X103537218Y-86648609D02*
X103489599Y-86553371D01*
X103489599Y-86553371D02*
X103394361Y-86505752D01*
X103394361Y-86505752D02*
X103203885Y-86505752D01*
X103203885Y-86505752D02*
X103108647Y-86553371D01*
X103108647Y-86553371D02*
X103061028Y-86648609D01*
X103061028Y-86648609D02*
X103061028Y-86743847D01*
X103061028Y-86743847D02*
X103537218Y-86839085D01*
X102203885Y-87172419D02*
X102203885Y-86172419D01*
X102203885Y-87124800D02*
X102299123Y-87172419D01*
X102299123Y-87172419D02*
X102489599Y-87172419D01*
X102489599Y-87172419D02*
X102584837Y-87124800D01*
X102584837Y-87124800D02*
X102632456Y-87077180D01*
X102632456Y-87077180D02*
X102680075Y-86981942D01*
X102680075Y-86981942D02*
X102680075Y-86696228D01*
X102680075Y-86696228D02*
X102632456Y-86600990D01*
X102632456Y-86600990D02*
X102584837Y-86553371D01*
X102584837Y-86553371D02*
X102489599Y-86505752D01*
X102489599Y-86505752D02*
X102299123Y-86505752D01*
X102299123Y-86505752D02*
X102203885Y-86553371D01*
X101299123Y-87172419D02*
X101299123Y-86172419D01*
X101299123Y-87124800D02*
X101394361Y-87172419D01*
X101394361Y-87172419D02*
X101584837Y-87172419D01*
X101584837Y-87172419D02*
X101680075Y-87124800D01*
X101680075Y-87124800D02*
X101727694Y-87077180D01*
X101727694Y-87077180D02*
X101775313Y-86981942D01*
X101775313Y-86981942D02*
X101775313Y-86696228D01*
X101775313Y-86696228D02*
X101727694Y-86600990D01*
X101727694Y-86600990D02*
X101680075Y-86553371D01*
X101680075Y-86553371D02*
X101584837Y-86505752D01*
X101584837Y-86505752D02*
X101394361Y-86505752D01*
X101394361Y-86505752D02*
X101299123Y-86553371D01*
X100441980Y-87124800D02*
X100537218Y-87172419D01*
X100537218Y-87172419D02*
X100727694Y-87172419D01*
X100727694Y-87172419D02*
X100822932Y-87124800D01*
X100822932Y-87124800D02*
X100870551Y-87029561D01*
X100870551Y-87029561D02*
X100870551Y-86648609D01*
X100870551Y-86648609D02*
X100822932Y-86553371D01*
X100822932Y-86553371D02*
X100727694Y-86505752D01*
X100727694Y-86505752D02*
X100537218Y-86505752D01*
X100537218Y-86505752D02*
X100441980Y-86553371D01*
X100441980Y-86553371D02*
X100394361Y-86648609D01*
X100394361Y-86648609D02*
X100394361Y-86743847D01*
X100394361Y-86743847D02*
X100870551Y-86839085D01*
X99965789Y-87172419D02*
X99965789Y-86505752D01*
X99965789Y-86696228D02*
X99918170Y-86600990D01*
X99918170Y-86600990D02*
X99870551Y-86553371D01*
X99870551Y-86553371D02*
X99775313Y-86505752D01*
X99775313Y-86505752D02*
X99680075Y-86505752D01*
X98061027Y-87172419D02*
X98632455Y-87172419D01*
X98346741Y-87172419D02*
X98346741Y-86172419D01*
X98346741Y-86172419D02*
X98441979Y-86315276D01*
X98441979Y-86315276D02*
X98537217Y-86410514D01*
X98537217Y-86410514D02*
X98632455Y-86458133D01*
X97108646Y-87172419D02*
X97680074Y-87172419D01*
X97394360Y-87172419D02*
X97394360Y-86172419D01*
X97394360Y-86172419D02*
X97489598Y-86315276D01*
X97489598Y-86315276D02*
X97584836Y-86410514D01*
X97584836Y-86410514D02*
X97680074Y-86458133D01*
X95965789Y-86124800D02*
X96822931Y-87410514D01*
X95680074Y-86267657D02*
X95632455Y-86220038D01*
X95632455Y-86220038D02*
X95537217Y-86172419D01*
X95537217Y-86172419D02*
X95299122Y-86172419D01*
X95299122Y-86172419D02*
X95203884Y-86220038D01*
X95203884Y-86220038D02*
X95156265Y-86267657D01*
X95156265Y-86267657D02*
X95108646Y-86362895D01*
X95108646Y-86362895D02*
X95108646Y-86458133D01*
X95108646Y-86458133D02*
X95156265Y-86600990D01*
X95156265Y-86600990D02*
X95727693Y-87172419D01*
X95727693Y-87172419D02*
X95108646Y-87172419D01*
X94203884Y-86172419D02*
X94680074Y-86172419D01*
X94680074Y-86172419D02*
X94727693Y-86648609D01*
X94727693Y-86648609D02*
X94680074Y-86600990D01*
X94680074Y-86600990D02*
X94584836Y-86553371D01*
X94584836Y-86553371D02*
X94346741Y-86553371D01*
X94346741Y-86553371D02*
X94251503Y-86600990D01*
X94251503Y-86600990D02*
X94203884Y-86648609D01*
X94203884Y-86648609D02*
X94156265Y-86743847D01*
X94156265Y-86743847D02*
X94156265Y-86981942D01*
X94156265Y-86981942D02*
X94203884Y-87077180D01*
X94203884Y-87077180D02*
X94251503Y-87124800D01*
X94251503Y-87124800D02*
X94346741Y-87172419D01*
X94346741Y-87172419D02*
X94584836Y-87172419D01*
X94584836Y-87172419D02*
X94680074Y-87124800D01*
X94680074Y-87124800D02*
X94727693Y-87077180D01*
M02*
