%TF.GenerationSoftware,KiCad,Pcbnew,9.0.5*%
%TF.CreationDate,2025-11-20T18:01:40-05:00*%
%TF.ProjectId,stencilFix,7374656e-6369-46c4-9669-782e6b696361,rev?*%
%TF.SameCoordinates,Original*%
%TF.FileFunction,Copper,L2,Bot*%
%TF.FilePolarity,Positive*%
%FSLAX46Y46*%
G04 Gerber Fmt 4.6, Leading zero omitted, Abs format (unit mm)*
G04 Created by KiCad (PCBNEW 9.0.5) date 2025-11-20 18:01:40*
%MOMM*%
%LPD*%
G01*
G04 APERTURE LIST*
G04 Aperture macros list*
%AMRoundRect*
0 Rectangle with rounded corners*
0 $1 Rounding radius*
0 $2 $3 $4 $5 $6 $7 $8 $9 X,Y pos of 4 corners*
0 Add a 4 corners polygon primitive as box body*
4,1,4,$2,$3,$4,$5,$6,$7,$8,$9,$2,$3,0*
0 Add four circle primitives for the rounded corners*
1,1,$1+$1,$2,$3*
1,1,$1+$1,$4,$5*
1,1,$1+$1,$6,$7*
1,1,$1+$1,$8,$9*
0 Add four rect primitives between the rounded corners*
20,1,$1+$1,$2,$3,$4,$5,0*
20,1,$1+$1,$4,$5,$6,$7,0*
20,1,$1+$1,$6,$7,$8,$9,0*
20,1,$1+$1,$8,$9,$2,$3,0*%
G04 Aperture macros list end*
%TA.AperFunction,ComponentPad*%
%ADD10RoundRect,0.250000X1.000000X1.000000X-1.000000X1.000000X-1.000000X-1.000000X1.000000X-1.000000X0*%
%TD*%
%TA.AperFunction,ComponentPad*%
%ADD11C,2.500000*%
%TD*%
%TA.AperFunction,ComponentPad*%
%ADD12C,2.000000*%
%TD*%
%TA.AperFunction,ComponentPad*%
%ADD13R,1.700000X1.700000*%
%TD*%
%TA.AperFunction,ComponentPad*%
%ADD14C,1.700000*%
%TD*%
%TA.AperFunction,ComponentPad*%
%ADD15R,0.900000X2.000000*%
%TD*%
%TA.AperFunction,ComponentPad*%
%ADD16RoundRect,1.025000X-1.025000X-1.025000X1.025000X-1.025000X1.025000X1.025000X-1.025000X1.025000X0*%
%TD*%
%TA.AperFunction,ComponentPad*%
%ADD17C,4.100000*%
%TD*%
%TA.AperFunction,Conductor*%
%ADD18C,0.600000*%
%TD*%
%TA.AperFunction,Conductor*%
%ADD19C,1.200000*%
%TD*%
%TA.AperFunction,Conductor*%
%ADD20C,0.200000*%
%TD*%
G04 APERTURE END LIST*
D10*
%TO.P,J4,1,Pin_1*%
%TO.N,+BATT*%
X103378000Y-70866000D03*
D11*
%TO.P,J4,2,Pin_2*%
%TO.N,Net-(J3-Pin_2)*%
X98378000Y-70866000D03*
%TD*%
D12*
%TO.P,U1,2,A1*%
%TO.N,BAT_LVL*%
X140716000Y-84328000D03*
%TO.P,U1,3,A2*%
%TO.N,POT*%
X140716000Y-81788000D03*
%TO.P,U1,4,A3*%
%TO.N,ESC_IN*%
X140716000Y-79248000D03*
%TO.P,U1,12,3.3V*%
%TO.N,+3.3V*%
X125476000Y-81788000D03*
%TO.P,U1,13,GND*%
%TO.N,GND*%
X125476000Y-84328000D03*
%TO.P,U1,14,5V*%
%TO.N,+5V*%
X125476000Y-86868000D03*
%TD*%
D13*
%TO.P,J2,1,Pin_1*%
%TO.N,GND*%
X164779000Y-75946000D03*
D14*
%TO.P,J2,2,Pin_2*%
%TO.N,Net-(D1-A)*%
X164779000Y-78486000D03*
%TO.P,J2,3,Pin_3*%
%TO.N,ESC_IN*%
X164779000Y-81026000D03*
%TD*%
D15*
%TO.P,J5,*%
%TO.N,*%
X144888000Y-70246000D03*
X158388000Y-70246000D03*
D16*
%TO.P,J5,1,Pin_1*%
%TO.N,GND*%
X155238000Y-76246000D03*
D17*
%TO.P,J5,2,Pin_2*%
%TO.N,+BATT*%
X148038000Y-76246000D03*
%TD*%
D13*
%TO.P,J1,1,Pin_1*%
%TO.N,GND*%
X93285000Y-81280000D03*
D14*
%TO.P,J1,2,Pin_2*%
%TO.N,POT*%
X93285000Y-78740000D03*
%TO.P,J1,3,Pin_3*%
%TO.N,+3.3V*%
X93285000Y-76200000D03*
%TD*%
D15*
%TO.P,J3,*%
%TO.N,*%
X108420000Y-70104000D03*
X121920000Y-70104000D03*
D16*
%TO.P,J3,1,Pin_1*%
%TO.N,GND*%
X111570000Y-76104000D03*
D17*
%TO.P,J3,2,Pin_2*%
%TO.N,Net-(J3-Pin_2)*%
X118770000Y-76104000D03*
%TD*%
D18*
%TO.N,POT*%
X93980000Y-78740000D02*
X93285000Y-78740000D01*
X124460000Y-79502000D02*
X122682000Y-81280000D01*
X140716000Y-81788000D02*
X138430000Y-79502000D01*
X96520000Y-81280000D02*
X93980000Y-78740000D01*
X122682000Y-81280000D02*
X96520000Y-81280000D01*
X138430000Y-79502000D02*
X124460000Y-79502000D01*
D19*
%TO.N,GND*%
X155238000Y-75992000D02*
X155238000Y-76246000D01*
D18*
%TO.N,ESC_IN*%
X164525000Y-81280000D02*
X142748000Y-81280000D01*
X142748000Y-81280000D02*
X140716000Y-79248000D01*
X164779000Y-81026000D02*
X164525000Y-81280000D01*
D19*
%TO.N,+BATT*%
X103378000Y-70866000D02*
X104521000Y-72009000D01*
X104521000Y-72009000D02*
X143801000Y-72009000D01*
X143801000Y-72009000D02*
X148038000Y-76246000D01*
%TO.N,Net-(J3-Pin_2)*%
X107268000Y-79756000D02*
X115118000Y-79756000D01*
X98378000Y-70866000D02*
X107268000Y-79756000D01*
D20*
X118770000Y-76104000D02*
X118912000Y-76246000D01*
D19*
X115118000Y-79756000D02*
X118770000Y-76104000D01*
D20*
X118912000Y-76246000D02*
X119740400Y-76246000D01*
X119740400Y-76246000D02*
X119781700Y-76246000D01*
%TD*%
M02*
