M48
; DRILL file {KiCad 9.0.5} date 2025-11-20T18:01:37-0500
; FORMAT={-:-/ absolute / metric / decimal}
; #@! TF.CreationDate,2025-11-20T18:01:37-05:00
; #@! TF.GenerationSoftware,Kicad,Pcbnew,9.0.5
; #@! TF.FileFunction,Plated,1,2,PTH
FMAT,2
METRIC
; #@! TA.AperFunction,Plated,PTH,ComponentDrill
T1C0.600
; #@! TA.AperFunction,Plated,PTH,ComponentDrill
T2C0.900
; #@! TA.AperFunction,Plated,PTH,ComponentDrill
T3C1.000
; #@! TA.AperFunction,Plated,PTH,ComponentDrill
T4C1.300
; #@! TA.AperFunction,Plated,PTH,ComponentDrill
T5C2.700
%
G90
G05
T2
X125.476Y-81.788
X125.476Y-84.328
X125.476Y-86.868
X140.716Y-79.248
X140.716Y-81.788
X140.716Y-84.328
T3
X93.285Y-76.2
X93.285Y-78.74
X93.285Y-81.28
X164.779Y-75.946
X164.779Y-78.486
X164.779Y-81.026
T4
X98.378Y-70.866
X103.378Y-70.866
T5
X111.57Y-76.104
X118.77Y-76.104
X148.038Y-76.246
X155.238Y-76.246
T1
G00X108.42Y-69.554
M15
G01X108.42Y-70.654
M16
G05
G00X121.92Y-69.554
M15
G01X121.92Y-70.654
M16
G05
G00X144.888Y-69.696
M15
G01X144.888Y-70.796
M16
G05
G00X158.388Y-69.696
M15
G01X158.388Y-70.796
M16
G05
M30
